<svg width="21" height="17" viewBox="0 0 21 17" fill="none" xmlns="http://www.w3.org/2000/svg">
<path fill-rule="evenodd" clip-rule="evenodd" d="M0.5161 14.0871C0.506037 14.0479 0.5 14.0066 0.5 13.9633C0.5 13.8245 0.556349 13.6987 0.647917 13.6081C0.655967 13.5991 2.07275 12.1823 2.66039 11.5956C2.85963 11.3964 3.17056 11.4115 3.37181 11.5956C3.57205 11.7798 3.55796 12.1209 3.37181 12.3071L2.21765 13.4602H17.9844C18.8176 13.4602 19.4938 12.785 19.4938 11.9509V8.4904C19.4938 8.21267 19.7192 7.98728 19.9969 7.98728C20.2746 7.98728 20.5 8.21267 20.5 8.4904V11.9509C20.5 13.3405 19.373 14.4664 17.9844 14.4664H2.21765L3.37181 15.6206C3.57104 15.8198 3.55595 16.1308 3.37181 16.332C3.18766 16.5323 2.84655 16.5182 2.66039 16.332L0.647917 14.3195C0.581505 14.2561 0.537231 14.1756 0.5161 14.0871ZM20.4849 2.91281C20.495 2.95206 20.5 2.99331 20.5 3.03558C20.5 3.17444 20.4437 3.30022 20.3521 3.39178C20.344 3.39983 18.9272 4.81762 18.3396 5.40426C18.1414 5.6035 17.8294 5.5884 17.6282 5.40426C17.428 5.22012 17.442 4.879 17.6282 4.69285L18.7824 3.53869H3.0156C2.18243 3.53869 1.50624 4.21489 1.50624 5.04805V8.50851C1.50624 8.78623 1.28084 9.01163 1.00312 9.01163C0.725397 9.01163 0.5 8.78623 0.5 8.50851V5.04805C0.5 3.65844 1.62699 2.53246 3.0156 2.53246H18.7824L17.6292 1.37931C17.43 1.18007 17.4451 0.869143 17.6292 0.667896C17.8133 0.467654 18.1545 0.481742 18.3406 0.667896L20.3531 2.68037C20.4185 2.74377 20.4638 2.82427 20.4849 2.91281Z" fill="black"/>
</svg>
