<svg width="17" height="21" viewBox="0 0 17 21" fill="none" xmlns="http://www.w3.org/2000/svg">
<path d="M13.9811 0.5H3.01889C2.35141 0.501859 1.7118 0.767572 1.23982 1.23908C0.767841 1.71058 0.501861 2.34955 0.5 3.01636V17.9836C0.501861 18.6505 0.767841 19.2894 1.23982 19.7609C1.7118 20.2324 2.35141 20.4981 3.01889 20.5H13.9811C14.6492 20.5 15.2898 20.2349 15.7622 19.763C16.2346 19.2911 16.5 18.651 16.5 17.9836V3.01636C16.5 2.6859 16.4348 2.35869 16.3083 2.05339C16.1817 1.74809 15.9961 1.47069 15.7622 1.23702C15.5283 1.00336 15.2507 0.818005 14.945 0.691546C14.6394 0.565087 14.3119 0.5 13.9811 0.5ZM15.4924 17.9836C15.4924 18.3841 15.3332 18.7681 15.0498 19.0512C14.7664 19.3344 14.3819 19.4935 13.9811 19.4935H3.01889C2.61806 19.4935 2.23365 19.3344 1.95022 19.0512C1.66679 18.7681 1.50756 18.3841 1.50756 17.9836V4.96905H15.4924V17.9836Z" fill="#1E1E23"/>
<path d="M4.01537 7.9897C3.88176 7.9897 3.75362 7.93667 3.65914 7.84229C3.56466 7.74791 3.51159 7.6199 3.51159 7.48643C3.51159 7.35295 3.56466 7.22494 3.65914 7.13056C3.75362 7.03618 3.88176 6.98315 4.01537 6.98315H12.9917C13.1253 6.98315 13.2534 7.03618 13.3479 7.13056C13.4424 7.22494 13.4955 7.35295 13.4955 7.48643C13.4955 7.6199 13.4424 7.74791 13.3479 7.84229C13.2534 7.93667 13.1253 7.9897 12.9917 7.9897H4.01537Z" fill="#1E1E23"/>
<path d="M4.01537 11.0095C3.88176 11.0095 3.75362 10.9564 3.65914 10.8621C3.56466 10.7677 3.51159 10.6397 3.51159 10.5062C3.51159 10.3727 3.56466 10.2447 3.65914 10.1503C3.75362 10.056 3.88176 10.0029 4.01537 10.0029H10.5645C10.6981 10.0029 10.8262 10.056 10.9207 10.1503C11.0152 10.2447 11.0683 10.3727 11.0683 10.5062C11.0683 10.6397 11.0152 10.7677 10.9207 10.8621C10.8262 10.9564 10.6981 11.0095 10.5645 11.0095H4.01537Z" fill="#1E1E23"/>
<path d="M4.03248 16.9157C3.89887 16.9157 3.77073 16.8627 3.67625 16.7683C3.58177 16.6739 3.5287 16.5459 3.5287 16.4125C3.5287 16.279 3.58177 16.151 3.67625 16.0566C3.77073 15.9622 3.89887 15.9092 4.03248 15.9092H7.30804C7.44165 15.9092 7.56979 15.9622 7.66427 16.0566C7.75874 16.151 7.81182 16.279 7.81182 16.4125C7.81182 16.5459 7.75874 16.6739 7.66427 16.7683C7.56979 16.8627 7.44165 16.9157 7.30804 16.9157H4.03248Z" fill="#1E1E23"/>
</svg>
