<svg width="21" height="21" viewBox="0 0 21 21" fill="none" xmlns="http://www.w3.org/2000/svg">
<path d="M18.8858 17.1538V8.66677C19.245 8.65364 19.5904 8.52444 19.8703 8.29845C20.1502 8.07247 20.3497 7.76183 20.4389 7.41292C20.5387 7.05697 20.5158 6.67771 20.3738 6.33643C20.2319 5.99515 19.9793 5.71179 19.6567 5.53214L11.3324 0.718246C11.0782 0.575157 10.7916 0.5 10.5 0.5C10.2084 0.5 9.92177 0.575157 9.66757 0.718246L1.34326 5.53214C1.02074 5.71179 0.768103 5.99515 0.626176 6.33643C0.484249 6.67771 0.461324 7.05697 0.561106 7.41292C0.652668 7.77315 0.861934 8.09232 1.15556 8.31955C1.44918 8.54679 1.81027 8.66902 2.18127 8.66677H2.32653V17.1415H2.19245C1.74794 17.1415 1.32163 17.3184 1.00731 17.6333C0.692994 17.9482 0.516412 18.3754 0.516412 18.8207C0.516412 19.2661 0.692994 19.6932 1.00731 20.0082C1.32163 20.3231 1.74794 20.5 2.19245 20.5H18.8076C19.2274 20.4752 19.6227 20.293 19.9148 19.9898C20.2069 19.6865 20.3745 19.2843 20.3843 18.863C20.3942 18.4416 20.2455 18.032 19.9679 17.7154C19.6903 17.3988 19.304 17.1983 18.8858 17.1538ZM2.18127 7.54726C2.05812 7.54569 1.93887 7.50378 1.84171 7.42795C1.74455 7.35212 1.67482 7.24652 1.64317 7.12726C1.61151 7.00801 1.61967 6.88166 1.66639 6.76748C1.71311 6.65331 1.79584 6.55758 1.90193 6.49492L10.2262 1.69334C10.3089 1.64337 10.4035 1.61696 10.5 1.61696C10.5965 1.61696 10.6911 1.64337 10.7738 1.69334L19.1037 6.49492C19.2142 6.55462 19.3015 6.64992 19.3514 6.76544C19.4013 6.88095 19.4108 7.00993 19.3785 7.13156C19.3463 7.25319 19.274 7.36037 19.1734 7.43579C19.0729 7.51122 18.9499 7.55049 18.8243 7.54726H2.18127ZM17.7684 8.66677V17.1415H13.7403V8.66677H17.7684ZM12.6174 8.66677V17.1415H8.58373V8.66677H12.6174ZM7.46637 8.66677V17.1415H3.44389V8.66677H7.46637ZM18.8076 19.3805H2.19245C2.04428 19.3805 1.90218 19.3215 1.7974 19.2165C1.69263 19.1116 1.63377 18.9692 1.63377 18.8207C1.63377 18.6723 1.69263 18.5299 1.7974 18.4249C1.90218 18.32 2.04428 18.261 2.19245 18.261H18.8076C18.9557 18.261 19.0978 18.32 19.2026 18.4249C19.3074 18.5299 19.3662 18.6723 19.3662 18.8207C19.3662 18.9692 19.3074 19.1116 19.2026 19.2165C19.0978 19.3215 18.9557 19.3805 18.8076 19.3805Z" fill="#1E1E23"/>
</svg>
