<svg width="21" height="21" viewBox="0 0 21 21" fill="none" xmlns="http://www.w3.org/2000/svg">
<path d="M19.9413 20.4686H1.05866C0.910492 20.4686 0.768394 20.4098 0.663626 20.305C0.558857 20.2002 0.5 20.0581 0.5 19.91C0.5 19.7618 0.558857 19.6197 0.663626 19.5149C0.768394 19.4102 0.910492 19.3513 1.05866 19.3513H19.9413C20.0895 19.3513 20.2316 19.4102 20.3364 19.5149C20.4411 19.6197 20.5 19.7618 20.5 19.91C20.5 20.0581 20.4411 20.2002 20.3364 20.305C20.2316 20.4098 20.0895 20.4686 19.9413 20.4686Z" fill="#1E1E23"/>
<path d="M13.8497 18.2307H16.5704C17.3112 18.2307 18.0217 17.9364 18.5456 17.4126C19.0694 16.8887 19.3637 16.1782 19.3637 15.4374V3.32455C19.3637 2.58372 19.0694 1.87323 18.5456 1.34939C18.0217 0.825543 17.3112 0.53125 16.5704 0.53125H13.8497C13.4829 0.53125 13.1197 0.603501 12.7808 0.743877C12.4419 0.884253 12.1339 1.09001 11.8746 1.34939C11.6152 1.60877 11.4094 1.9167 11.2691 2.2556C11.1287 2.5945 11.0564 2.95773 11.0564 3.32455V15.4374C11.0564 15.8042 11.1287 16.1674 11.2691 16.5063C11.4094 16.8452 11.6152 17.1532 11.8746 17.4126C12.1339 17.6719 12.4419 17.8777 12.7808 18.0181C13.1197 18.1584 13.4829 18.2307 13.8497 18.2307ZM16.5704 1.64857C17.0149 1.64857 17.4412 1.82514 17.7555 2.13945C18.0698 2.45376 18.2464 2.88005 18.2464 3.32455V15.4374C18.2464 15.8819 18.0698 16.3082 17.7555 16.6225C17.4412 16.9368 17.0149 17.1134 16.5704 17.1134H13.8497C13.4052 17.1134 12.9789 16.9368 12.6646 16.6225C12.3503 16.3082 12.1737 15.8819 12.1737 15.4374V3.32455C12.1737 2.88005 12.3503 2.45376 12.6646 2.13945C12.9789 1.82514 13.4052 1.64857 13.8497 1.64857H16.5704Z" fill="#1E1E23"/>
<path d="M4.4229 18.2308H7.14581C7.88664 18.2308 8.59712 17.9365 9.12097 17.4127C9.64481 16.8888 9.93911 16.1783 9.93911 15.4375V8.87997C9.93911 8.13914 9.64481 7.42865 9.12097 6.90481C8.59712 6.38096 7.88664 6.08667 7.14581 6.08667H4.42626C3.68543 6.08667 2.97494 6.38096 2.4511 6.90481C1.92725 7.42865 1.63296 8.13914 1.63296 8.87997V15.4375C1.63296 16.1778 1.92679 16.8877 2.44991 17.4115C2.97303 17.9352 3.68266 18.2299 4.4229 18.2308ZM7.14581 7.20399C7.59031 7.20399 8.0166 7.38056 8.33091 7.69487C8.64521 8.00918 8.82179 8.43547 8.82179 8.87997V15.4375C8.82179 15.882 8.64521 16.3083 8.33091 16.6226C8.0166 16.9369 7.59031 17.1135 7.14581 17.1135H4.42626C3.98176 17.1135 3.55547 16.9369 3.24116 16.6226C2.92686 16.3083 2.75028 15.882 2.75028 15.4375V8.87997C2.75028 8.43547 2.92686 8.00918 3.24116 7.69487C3.55547 7.38056 3.98176 7.20399 4.42626 7.20399H7.14581Z" fill="#1E1E23"/>
</svg>
