<svg width="4" height="15" viewBox="0 0 4 15" fill="none" xmlns="http://www.w3.org/2000/svg">
<path d="M2.125 3.75C3.15625 3.75 4 2.90625 4 1.875C4 0.84375 3.15625 0 2.125 0C1.09375 0 0.25 0.84375 0.25 1.875C0.25 2.90625 1.09375 3.75 2.125 3.75ZM2.125 5.625C1.09375 5.625 0.25 6.46875 0.25 7.5C0.25 8.53125 1.09375 9.375 2.125 9.375C3.15625 9.375 4 8.53125 4 7.5C4 6.46875 3.15625 5.625 2.125 5.625ZM2.125 11.25C1.09375 11.25 0.25 12.0938 0.25 13.125C0.25 14.1562 1.09375 15 2.125 15C3.15625 15 4 14.1562 4 13.125C4 12.0938 3.15625 11.25 2.125 11.25Z" fill="#323232"/>
</svg>
